<svg width="17" height="18" viewBox="0 0 17 18" fill="none" xmlns="http://www.w3.org/2000/svg">
<path fill-rule="evenodd" clip-rule="evenodd" d="M9.26636 0.982755C9.50932 1.08343 9.73006 1.23099 9.91598 1.41701L16.084 7.58401C16.2701 7.76994 16.4178 7.99075 16.5186 8.2338C16.6194 8.47686 16.6712 8.73739 16.6712 9.00051C16.6712 9.26362 16.6194 9.52415 16.5186 9.76721C16.4178 10.0103 16.2701 10.2311 16.084 10.417L9.91598 16.584C9.73006 16.77 9.50932 16.9176 9.26636 17.0183C9.02339 17.1189 8.76298 17.1707 8.49998 17.1707C8.23699 17.1707 7.97657 17.1189 7.7336 17.0183C7.49064 16.9176 7.2699 16.77 7.08398 16.584L0.91598 10.417C0.729816 10.2311 0.582129 10.0103 0.481365 9.76721C0.3806 9.52415 0.328735 9.26362 0.328735 9.00051C0.328735 8.73739 0.3806 8.47686 0.481365 8.2338C0.582129 7.99075 0.729816 7.76994 0.91598 7.58401L7.08398 1.41701C7.2699 1.23099 7.49064 1.08343 7.7336 0.982755C7.97657 0.882079 8.23699 0.830261 8.49998 0.830261C8.76298 0.830261 9.02339 0.882079 9.26636 0.982755ZM7.79287 10.7071C7.98041 10.8946 8.23476 11 8.49998 11C8.76519 11 9.01955 10.8946 9.20708 10.7071C9.39462 10.5196 9.49998 10.2652 9.49998 10V5C9.49998 4.73478 9.39462 4.48043 9.20708 4.29289C9.01955 4.10536 8.76519 4 8.49998 4C8.23476 4 7.98041 4.10536 7.79287 4.29289C7.60533 4.48043 7.49998 4.73478 7.49998 5V10C7.49998 10.2652 7.60533 10.5196 7.79287 10.7071ZM7.79287 13.7071C7.98041 13.8946 8.23476 14 8.49998 14C8.76519 14 9.01955 13.8946 9.20708 13.7071C9.39462 13.5196 9.49998 13.2652 9.49998 13C9.49998 12.7348 9.39462 12.4804 9.20708 12.2929C9.01955 12.1054 8.76519 12 8.49998 12C8.23476 12 7.98041 12.1054 7.79287 12.2929C7.60533 12.4804 7.49998 12.7348 7.49998 13C7.49998 13.2652 7.60533 13.5196 7.79287 13.7071Z" fill="white"/>
</svg>
